<svg width="126" height="35" viewBox="0 0 126 35" fill="none" xmlns="http://www.w3.org/2000/svg">
<path d="M20.3335 16.1675C20.3003 12.4838 23.3558 10.6917 23.4955 10.6083C21.7651 8.0904 19.0829 7.74637 18.1404 7.71894C15.8877 7.48236 13.7026 9.06418 12.555 9.06418C11.3846 9.06418 9.61749 7.7418 7.71295 7.78066C5.26213 7.81838 2.96936 9.23447 1.71188 11.4335C-0.883237 15.9172 1.05222 22.5062 3.53854 26.1305C4.78228 27.9054 6.23559 29.8873 8.13784 29.8176C9.99886 29.741 10.694 28.6335 12.9398 28.6335C15.165 28.6335 15.8178 29.8176 17.7579 29.773C19.7552 29.741 21.0127 27.99 22.2129 26.199C23.6501 24.1646 24.2273 22.1611 24.2503 22.0582C24.2033 22.0422 20.3713 20.5827 20.3335 16.1675Z" fill="#0F0F54"/>
<path d="M16.6691 5.33459C17.6701 4.08536 18.3549 2.38582 18.1648 0.661133C16.7161 0.725137 14.9043 1.6612 13.861 2.883C12.9379 3.95964 12.1134 5.72433 12.3264 7.38387C13.9538 7.50502 15.6247 6.56438 16.6691 5.33459Z" fill="#0F0F54"/>
<path d="M47.2657 29.5617H44.6649L43.2402 25.094H38.2882L36.9311 29.5617H34.3989L39.3051 14.3516H42.3355L47.2657 29.5617ZM42.8107 23.2196L41.5223 19.2479C41.386 18.8421 41.1307 17.8867 40.7539 16.3826H40.7081C40.558 17.0295 40.3164 17.9849 39.9843 19.2479L38.7188 23.2196H42.8107Z" fill="#0F0F54"/>
<path d="M59.8825 23.9437C59.8825 25.809 59.3774 27.2834 58.3673 28.3657C57.4626 29.3292 56.3391 29.8104 54.998 29.8104C53.5504 29.8104 52.5106 29.2915 51.8773 28.2537H51.8314V34.0312H49.3898V22.2053C49.3898 21.0327 49.3589 19.8292 49.2993 18.5948H51.4466L51.5829 20.3332H51.6287C52.443 19.0234 53.6787 18.3696 55.337 18.3696C56.6334 18.3696 57.7157 18.8805 58.5815 19.9034C59.4496 20.9275 59.8825 22.2739 59.8825 23.9437ZM57.395 24.0329C57.395 22.9654 57.1545 22.0853 56.6712 21.3927C56.1433 20.6704 55.4344 20.3092 54.5457 20.3092C53.9433 20.3092 53.3958 20.5103 52.9068 20.9069C52.4167 21.307 52.096 21.8293 51.946 22.4762C51.8704 22.7779 51.8326 23.0248 51.8326 23.2191V25.0478C51.8326 25.8456 52.0777 26.5187 52.5678 27.0685C53.058 27.6182 53.6947 27.8925 54.4781 27.8925C55.3977 27.8925 56.1135 27.5382 56.6254 26.8319C57.1385 26.1244 57.395 25.1918 57.395 24.0329Z" fill="#0F0F54"/>
<path d="M72.523 23.9437C72.523 25.809 72.0179 27.2834 71.0067 28.3657C70.1031 29.3292 68.9796 29.8104 67.6385 29.8104C66.1909 29.8104 65.151 29.2915 64.5189 28.2537H64.473V34.0312H62.0314V22.2053C62.0314 21.0327 62.0005 19.8292 61.9409 18.5948H64.0882L64.2245 20.3332H64.2703C65.0835 19.0234 66.3192 18.3696 67.9786 18.3696C69.2739 18.3696 70.3562 18.8805 71.2243 19.9034C72.0889 20.9275 72.523 22.2739 72.523 23.9437ZM70.0355 24.0329C70.0355 22.9654 69.7938 22.0853 69.3105 21.3927C68.7826 20.6704 68.076 20.3092 67.1861 20.3092C66.5826 20.3092 66.0363 20.5103 65.5461 20.9069C65.056 21.307 64.7365 21.8293 64.5864 22.4762C64.512 22.7779 64.473 23.0248 64.473 23.2191V25.0478C64.473 25.8456 64.7181 26.5187 65.206 27.0685C65.6962 27.6171 66.3329 27.8925 67.1186 27.8925C68.0382 27.8925 68.754 27.5382 69.2659 26.8319C69.779 26.1244 70.0355 25.1918 70.0355 24.0329Z" fill="#0F0F54"/>
<path d="M86.6553 25.296C86.6553 26.5898 86.2052 27.6425 85.3017 28.4551C84.3087 29.3431 82.9264 29.7866 81.1501 29.7866C79.5102 29.7866 78.1954 29.4712 77.2002 28.8391L77.7659 26.8081C78.8379 27.455 80.0141 27.7796 81.2956 27.7796C82.2152 27.7796 82.931 27.5716 83.4452 27.1579C83.9571 26.7441 84.2125 26.1886 84.2125 25.496C84.2125 24.8788 84.0018 24.3588 83.5792 23.9371C83.1589 23.5153 82.4569 23.1233 81.4765 22.761C78.8081 21.7678 77.4751 20.3128 77.4751 18.3996C77.4751 17.1492 77.9423 16.124 78.878 15.3262C79.8102 14.5273 81.0539 14.1284 82.6092 14.1284C83.9961 14.1284 85.1482 14.3696 86.0678 14.8508L85.4574 16.8372C84.5985 16.3709 83.6273 16.1377 82.5405 16.1377C81.6815 16.1377 81.0104 16.3491 80.5294 16.7697C80.1229 17.1458 79.919 17.6041 79.919 18.147C79.919 18.7482 80.1515 19.2453 80.6187 19.6362C81.0253 19.9974 81.764 20.3883 82.8359 20.81C84.1472 21.3369 85.1104 21.9529 85.73 22.6593C86.3473 23.3633 86.6553 24.2445 86.6553 25.296Z" fill="#0F0F54"/>
<path d="M94.7279 20.4228H92.0366V25.7477C92.0366 27.1021 92.5108 27.7787 93.4613 27.7787C93.8976 27.7787 94.2595 27.741 94.5458 27.6655L94.6134 29.516C94.1324 29.6954 93.4991 29.7857 92.7146 29.7857C91.7503 29.7857 90.9967 29.492 90.4528 28.9056C89.9111 28.3182 89.6385 27.333 89.6385 25.9489V20.4205H88.0352V18.5918H89.6385V16.5837L92.0366 15.8613V18.5918H94.7279V20.4228Z" fill="#0F0F54"/>
<path d="M106.872 23.9871C106.872 25.673 106.388 27.0571 105.424 28.1394C104.413 29.2538 103.07 29.8092 101.397 29.8092C99.7848 29.8092 98.501 29.2755 97.5436 28.208C96.5861 27.1405 96.1074 25.793 96.1074 24.1689C96.1074 22.4693 96.5999 21.0772 97.5882 19.9949C98.5743 18.9114 99.905 18.3696 101.578 18.3696C103.191 18.3696 104.488 18.9034 105.467 19.972C106.404 21.0087 106.872 22.347 106.872 23.9871ZM104.338 24.066C104.338 23.0545 104.122 22.187 103.683 21.4635C103.171 20.5881 102.439 20.1515 101.491 20.1515C100.51 20.1515 99.7642 20.5892 99.2523 21.4635C98.8136 22.1882 98.5972 23.0694 98.5972 24.1117C98.5972 25.1232 98.8136 25.9907 99.2523 26.713C99.7802 27.5885 100.518 28.0251 101.469 28.0251C102.402 28.0251 103.133 27.5794 103.661 26.6902C104.112 25.953 104.338 25.0764 104.338 24.066Z" fill="#0F0F54"/>
<path d="M114.807 20.7378C114.565 20.6932 114.308 20.6704 114.037 20.6704C113.178 20.6704 112.514 20.9938 112.047 21.6418C111.64 22.2133 111.436 22.9356 111.436 23.8077V29.5624H108.996L109.019 22.0487C109.019 20.7846 108.988 19.6337 108.927 18.5959H111.054L111.143 20.6944H111.211C111.469 19.9732 111.875 19.3926 112.432 18.9571C112.976 18.5651 113.563 18.3696 114.197 18.3696C114.422 18.3696 114.626 18.3856 114.807 18.4142V20.7378Z" fill="#0F0F54"/>
<path d="M125.728 23.5598C125.728 23.9964 125.699 24.3644 125.638 24.665H118.313C118.342 25.7485 118.696 26.5771 119.376 27.1486C119.993 27.6595 120.792 27.9155 121.772 27.9155C122.856 27.9155 123.846 27.7429 124.736 27.3966L125.118 29.0881C124.078 29.5407 122.851 29.7659 121.434 29.7659C119.73 29.7659 118.392 29.2653 117.419 28.2652C116.448 27.2651 115.961 25.9222 115.961 24.2375C115.961 22.5837 116.413 21.2065 117.319 20.1081C118.267 18.9354 119.549 18.3491 121.161 18.3491C122.745 18.3491 123.944 18.9354 124.759 20.1081C125.403 21.0396 125.728 22.1917 125.728 23.5598ZM123.399 22.9277C123.415 22.2054 123.256 21.5813 122.925 21.0544C122.503 20.3767 121.853 20.0384 120.979 20.0384C120.181 20.0384 119.532 20.3687 119.036 21.0316C118.629 21.5585 118.388 22.1905 118.313 22.9266H123.399V22.9277Z" fill="#0F0F54"/>
<path d="M42.0037 4.99791C42.0037 6.34314 41.5994 7.35578 40.792 8.03583C40.0441 8.6633 38.9814 8.9776 37.6048 8.9776C36.9222 8.9776 36.3381 8.94789 35.8491 8.88845V1.53825C36.487 1.43539 37.1742 1.38281 37.9163 1.38281C39.2276 1.38281 40.2159 1.6674 40.8825 2.23658C41.6292 2.88005 42.0037 3.80012 42.0037 4.99791ZM40.7382 5.03105C40.7382 4.159 40.5068 3.49038 40.0441 3.02406C39.5815 2.55889 38.9058 2.32573 38.0159 2.32573C37.638 2.32573 37.3162 2.35088 37.0493 2.40345V7.99125C37.1971 8.01411 37.4673 8.0244 37.8602 8.0244C38.7787 8.0244 39.4876 7.76952 39.9869 7.25977C40.4862 6.75003 40.7382 6.00712 40.7382 5.03105Z" fill="#0F0F54"/>
<path d="M48.7139 6.17066C48.7139 6.99929 48.4768 7.67819 48.0027 8.2108C47.5056 8.75826 46.8471 9.03142 46.0248 9.03142C45.2323 9.03142 44.6013 8.76969 44.1306 8.24394C43.661 7.71934 43.4263 7.05758 43.4263 6.25981C43.4263 5.42547 43.6679 4.74085 44.1535 4.20939C44.6391 3.67792 45.2919 3.41162 46.1142 3.41162C46.9067 3.41162 47.5434 3.67335 48.0256 4.19796C48.4837 4.70771 48.7139 5.36604 48.7139 6.17066ZM47.469 6.20952C47.469 5.71235 47.3613 5.28603 47.1472 4.93058C46.8952 4.50084 46.5367 4.28596 46.0706 4.28596C45.5885 4.28596 45.222 4.50084 44.9701 4.93058C44.7547 5.28603 44.6482 5.7192 44.6482 6.23124C44.6482 6.72841 44.7559 7.15473 44.9701 7.51018C45.23 7.93992 45.5919 8.15479 46.0592 8.15479C46.5173 8.15479 46.8769 7.93649 47.1357 7.49875C47.3579 7.13644 47.469 6.7067 47.469 6.20952Z" fill="#0F0F54"/>
<path d="M57.7112 3.52197L56.0219 8.90976H54.9225L54.2228 6.57018C54.0452 5.98614 53.9009 5.40553 53.7887 4.82949H53.7669C53.6627 5.42153 53.5184 6.00099 53.3329 6.57018L52.5896 8.90976H51.4776L49.8892 3.52197H51.1226L51.733 6.08329C51.8807 6.68904 52.0021 7.26622 52.0995 7.81254H52.1212C52.2106 7.36223 52.3583 6.78848 52.5667 6.09472L53.3329 3.52312H54.3109L55.045 6.03986C55.2225 6.65361 55.3668 7.24451 55.4779 7.81369H55.5112C55.5925 7.25936 55.715 6.66847 55.8776 6.03986L56.5327 3.52312H57.7112V3.52197Z" fill="#0F0F54"/>
<path d="M63.9328 8.90914H62.7326V5.82322C62.7326 4.8723 62.3707 4.39684 61.6446 4.39684C61.2885 4.39684 61.001 4.52714 60.7777 4.78887C60.5566 5.0506 60.4444 5.35919 60.4444 5.71236V8.908H59.2442V5.06088C59.2442 4.58771 59.2293 4.07453 59.2007 3.51907H60.2554L60.3116 4.36141H60.3448C60.4845 4.09968 60.6929 3.88366 60.9666 3.71108C61.2919 3.50992 61.6561 3.4082 62.0546 3.4082C62.5585 3.4082 62.9777 3.5705 63.311 3.89624C63.7255 4.29512 63.9328 4.89059 63.9328 5.6815V8.90914Z" fill="#0F0F54"/>
<path d="M67.243 8.90976H66.0439V1.0498H67.243V8.90976Z" fill="#0F0F54"/>
<path d="M74.3091 6.17066C74.3091 6.99929 74.072 7.67819 73.5979 8.2108C73.1008 8.75826 72.4412 9.03142 71.62 9.03142C70.8264 9.03142 70.1954 8.76969 69.7258 8.24394C69.2563 7.71934 69.0215 7.05758 69.0215 6.25981C69.0215 5.42547 69.2631 4.74085 69.7487 4.20939C70.2343 3.67792 70.8871 3.41162 71.7082 3.41162C72.5019 3.41162 73.1375 3.67335 73.6208 4.19796C74.0789 4.70771 74.3091 5.36604 74.3091 6.17066ZM73.063 6.20952C73.063 5.71235 72.9554 5.28603 72.7412 4.93058C72.4904 4.50084 72.1308 4.28596 71.6658 4.28596C71.1826 4.28596 70.8161 4.50084 70.5653 4.93058C70.35 5.28603 70.2435 5.7192 70.2435 6.23124C70.2435 6.72841 70.3511 7.15473 70.5653 7.51018C70.8252 7.93992 71.1871 8.15479 71.6544 8.15479C72.1125 8.15479 72.471 7.93649 72.7298 7.49875C72.9531 7.13644 73.063 6.7067 73.063 6.20952Z" fill="#0F0F54"/>
<path d="M80.1171 8.90913H79.0395L78.9501 8.28852H78.9169C78.5482 8.78341 78.0225 9.03142 77.3399 9.03142C76.8303 9.03142 76.418 8.86798 76.1077 8.54339C75.8259 8.24851 75.6851 7.88163 75.6851 7.44617C75.6851 6.78785 75.9599 6.2861 76.5131 5.93865C77.0651 5.59119 77.8415 5.4209 78.8413 5.4289V5.32832C78.8413 4.61856 78.468 4.26425 77.7201 4.26425C77.1876 4.26425 76.7181 4.39797 76.3127 4.66313L76.0687 3.87679C76.5703 3.56706 77.1899 3.41162 77.9206 3.41162C79.3315 3.41162 80.0393 4.15453 80.0393 5.64034V7.62447C80.0393 8.16279 80.0656 8.59139 80.1171 8.90913ZM78.8711 7.05758V6.22667C77.5472 6.20381 76.8853 6.56612 76.8853 7.31245C76.8853 7.59361 76.9609 7.80391 77.1155 7.94449C77.2701 8.08507 77.467 8.15479 77.7018 8.15479C77.9652 8.15479 78.2115 8.07136 78.4359 7.90563C78.6615 7.73877 78.8001 7.52732 78.8516 7.26788C78.8642 7.20959 78.8711 7.13873 78.8711 7.05758Z" fill="#0F0F54"/>
<path d="M86.9373 8.90976H85.8722L85.8161 8.04456H85.7829C85.4427 8.70289 84.8632 9.03205 84.049 9.03205C83.3985 9.03205 82.8568 8.77718 82.4273 8.26743C81.9978 7.75768 81.7837 7.09592 81.7837 6.2833C81.7837 5.41124 82.0162 4.70491 82.4834 4.16544C82.9358 3.66255 83.4901 3.4111 84.1498 3.4111C84.8747 3.4111 85.382 3.65455 85.6706 4.14258H85.6935V1.0498H86.8949V7.45823C86.8949 7.98284 86.9086 8.4663 86.9373 8.90976ZM85.6935 6.63761V5.73926C85.6935 5.58382 85.6821 5.4581 85.6603 5.36209C85.5928 5.07407 85.4473 4.83177 85.2263 4.63633C85.003 4.44089 84.7338 4.3426 84.4235 4.3426C83.9757 4.3426 83.6252 4.51975 83.3676 4.8752C83.1122 5.23066 82.9828 5.6844 82.9828 6.23872C82.9828 6.77133 83.1053 7.20336 83.3515 7.53595C83.6115 7.89026 83.9619 8.06742 84.4006 8.06742C84.7945 8.06742 85.1095 7.91998 85.3488 7.62396C85.5802 7.3508 85.6935 7.02163 85.6935 6.63761Z" fill="#0F0F54"/>
<path d="M97.2017 6.17066C97.2017 6.99929 96.9646 7.67819 96.4905 8.2108C95.9934 8.75826 95.3361 9.03142 94.5126 9.03142C93.7213 9.03142 93.0902 8.76969 92.6184 8.24394C92.1488 7.71934 91.9141 7.05758 91.9141 6.25981C91.9141 5.42547 92.1557 4.74085 92.6413 4.20939C93.1269 3.67792 93.7797 3.41162 94.6031 3.41162C95.3945 3.41162 96.0324 3.67335 96.5134 4.19796C96.9715 4.70771 97.2017 5.36604 97.2017 6.17066ZM95.9579 6.20952C95.9579 5.71235 95.8503 5.28603 95.6361 4.93058C95.383 4.50084 95.0257 4.28596 94.5584 4.28596C94.0774 4.28596 93.7109 4.50084 93.4579 4.93058C93.2425 5.28603 93.136 5.7192 93.136 6.23124C93.136 6.72841 93.2437 7.15473 93.4579 7.51018C93.7178 7.93992 94.0797 8.15479 94.547 8.15479C95.0051 8.15479 95.3658 7.93649 95.6247 7.49875C95.8457 7.13644 95.9579 6.7067 95.9579 6.20952Z" fill="#0F0F54"/>
<path d="M103.655 8.90914H102.456V5.82322C102.456 4.8723 102.094 4.39684 101.367 4.39684C101.01 4.39684 100.723 4.52714 100.501 4.78887C100.279 5.0506 100.168 5.35919 100.168 5.71236V8.908H98.9662V5.06088C98.9662 4.58771 98.9525 4.07453 98.9238 3.51907H99.9775L100.034 4.36141H100.067C100.208 4.09968 100.416 3.88366 100.689 3.71108C101.015 3.50992 101.378 3.4082 101.778 3.4082C102.281 3.4082 102.7 3.5705 103.033 3.89624C103.449 4.29512 103.655 4.89059 103.655 5.6815V8.90914Z" fill="#0F0F54"/>
<path d="M111.732 4.41869H110.411V7.03601C110.411 7.7012 110.645 8.03379 111.11 8.03379C111.326 8.03379 111.504 8.01551 111.645 7.97779L111.676 8.88642C111.439 8.97557 111.128 9.02014 110.744 9.02014C110.27 9.02014 109.901 8.87613 109.634 8.58812C109.366 8.3001 109.233 7.81549 109.233 7.13545V4.41869H108.444V3.52149H109.233V2.534L110.41 2.17969V3.52035H111.731V4.41869H111.732Z" fill="#0F0F54"/>
<path d="M118.086 8.90976H116.885V5.84669C116.885 4.88092 116.523 4.39746 115.798 4.39746C115.241 4.39746 114.861 4.67747 114.653 5.23751C114.617 5.35523 114.597 5.49924 114.597 5.6684V8.90861H113.397V1.0498H114.597V4.29688H114.619C114.997 3.70598 115.539 3.4111 116.241 3.4111C116.738 3.4111 117.149 3.5734 117.476 3.89914C117.882 4.30488 118.086 4.90835 118.086 5.70611V8.90976Z" fill="#0F0F54"/>
<path d="M124.641 5.96039C124.641 6.17527 124.625 6.35585 124.596 6.50329H120.996C121.012 7.0359 121.184 7.44164 121.517 7.7228C121.822 7.97424 122.215 8.09997 122.696 8.09997C123.228 8.09997 123.714 8.01539 124.152 7.84509L124.339 8.67715C123.827 8.89888 123.225 9.00974 122.528 9.00974C121.692 9.00974 121.033 8.76401 120.557 8.27255C120.078 7.78109 119.841 7.12162 119.841 6.29413C119.841 5.48151 120.062 4.80489 120.507 4.26542C120.972 3.68939 121.601 3.40137 122.395 3.40137C123.171 3.40137 123.761 3.68939 124.16 4.26542C124.481 4.7226 124.641 5.28835 124.641 5.96039ZM123.495 5.65066C123.504 5.29521 123.425 4.9889 123.263 4.7306C123.054 4.39801 122.737 4.23114 122.308 4.23114C121.916 4.23114 121.596 4.39343 121.353 4.71917C121.153 4.97862 121.035 5.28835 120.996 5.65066H123.495Z" fill="#0F0F54"/>
</svg>
