<svg width="25" height="30" viewBox="0 0 25 30" fill="none" xmlns="http://www.w3.org/2000/svg">
<path d="M20.3335 16.1675C20.3003 12.4838 23.3558 10.6917 23.4955 10.6083C21.7651 8.0904 19.0829 7.74637 18.1404 7.71894C15.8877 7.48236 13.7026 9.06418 12.555 9.06418C11.3846 9.06418 9.61749 7.7418 7.71295 7.78066C5.26213 7.81838 2.96936 9.23447 1.71188 11.4335C-0.883237 15.9172 1.05222 22.5062 3.53854 26.1305C4.78228 27.9054 6.23559 29.8873 8.13784 29.8176C9.99886 29.741 10.694 28.6335 12.9398 28.6335C15.165 28.6335 15.8178 29.8176 17.7579 29.773C19.7552 29.741 21.0126 27.99 22.2129 26.199C23.6501 24.1646 24.2273 22.1611 24.2503 22.0582C24.2033 22.0422 20.3713 20.5827 20.3335 16.1675Z" fill="#0F0F54"/>
<path d="M16.6691 5.33459C17.6701 4.08536 18.3549 2.38582 18.1648 0.661133C16.7161 0.725137 14.9043 1.6612 13.861 2.883C12.9379 3.95964 12.1134 5.72433 12.3264 7.38387C13.9538 7.50502 15.6247 6.56438 16.6691 5.33459Z" fill="#0F0F54"/>
</svg>
