<svg width="29" height="32" viewBox="0 0 29 32" fill="none" xmlns="http://www.w3.org/2000/svg">
<path d="M1.61502 31.2212L16.3398 15.9795L1.62736 0.765137C1.23439 1.00201 0.991211 1.55046 0.991211 2.26836V29.7326C0.996481 30.4505 1.23087 30.9589 1.61502 31.2212Z" fill="#0F0F54"/>
<path d="M16.8671 15.5587L21.2532 11.018L3.39171 0.87999C3.09095 0.699098 2.74931 0.603551 2.40137 0.603027L16.8654 15.5569L16.8671 15.5587Z" fill="#0F0F54"/>
<path d="M16.8667 16.4014L2.35693 31.4208C2.72111 31.4271 3.07983 31.3287 3.3931 31.1366L21.2898 20.9712L16.8667 16.4014Z" fill="#0F0F54"/>
<path d="M27.7241 14.6973L21.7803 11.3174L17.2744 15.9819L21.8138 20.6756L27.7224 17.3047C28.9788 16.5887 28.9788 15.4098 27.7241 14.6973Z" fill="#0F0F54"/>
</svg>
