<svg width="141" height="33" viewBox="0 0 141 33" fill="none" xmlns="http://www.w3.org/2000/svg">
<path d="M70.9025 18.0901C69.8932 18.0948 68.908 18.3978 68.0711 18.9609C67.2342 19.5239 66.5832 20.3218 66.2002 21.2537C65.8172 22.1857 65.7195 23.21 65.9193 24.1973C66.1191 25.1847 66.6075 26.0908 67.3229 26.8014C68.0383 27.512 68.9485 27.9951 69.9388 28.1899C70.9291 28.3847 71.9549 28.2823 72.887 27.8958C73.819 27.5092 74.6154 26.8558 75.1757 26.018C75.7359 25.1801 76.0349 24.1954 76.0349 23.1881C76.0447 22.5139 75.9185 21.8446 75.6637 21.2201C75.409 20.5956 75.0309 20.0286 74.552 19.5529C74.0731 19.0772 73.5032 18.7026 72.8763 18.4513C72.2493 18.2 71.5781 18.0771 70.9025 18.0901ZM70.9025 26.283C70.2818 26.3263 69.6624 26.1822 69.1248 25.8696C68.5872 25.5569 68.1562 25.0901 67.888 24.5297C67.6198 23.9694 67.5267 23.3415 67.6208 22.7277C67.7149 22.1138 67.9918 21.5424 68.4156 21.0878C68.8394 20.6331 69.3905 20.3162 69.9972 20.1782C70.6039 20.0402 71.2381 20.0876 71.8175 20.3141C72.3968 20.5407 72.8945 20.9359 73.2458 21.4484C73.5971 21.961 73.7857 22.5671 73.7873 23.1881C73.8066 23.5816 73.7468 23.9749 73.6114 24.345C73.4761 24.715 73.2678 25.0543 72.9989 25.3427C72.7301 25.6312 72.4061 25.863 72.046 26.0244C71.686 26.1859 71.2972 26.2738 70.9025 26.283ZM59.7122 18.0901C58.7024 18.0924 57.7159 18.3934 56.8774 18.9551C56.039 19.5167 55.3861 20.3137 55.0013 21.2455C54.6165 22.1772 54.517 23.2019 54.7155 24.19C54.914 25.1782 55.4014 26.0854 56.1163 26.7972C56.8312 27.509 57.7415 27.9934 58.7321 28.1891C59.7226 28.3848 60.7492 28.2832 61.6819 27.897C62.6146 27.5108 63.4117 26.8573 63.9725 26.0192C64.5333 25.1811 64.8326 24.1959 64.8326 23.1881C64.8424 22.5139 64.7162 21.8446 64.4614 21.2201C64.2066 20.5956 63.8286 20.0286 63.3497 19.5529C62.8708 19.0772 62.3009 18.7026 61.6739 18.4513C61.047 18.2 60.3757 18.0771 59.7002 18.0901H59.7122ZM59.7122 26.283C59.0912 26.3287 58.4708 26.1868 57.9317 25.8758C57.3926 25.5647 56.9598 25.0989 56.6897 24.5389C56.4196 23.979 56.3247 23.3508 56.4173 22.7363C56.5099 22.1217 56.7857 21.5493 57.2089 21.0934C57.6321 20.6375 58.183 20.3193 58.7899 20.1802C59.3968 20.0411 60.0316 20.0876 60.6117 20.3137C61.1918 20.5397 61.6902 20.9347 62.0422 21.4474C62.3941 21.9601 62.5832 22.5667 62.5849 23.1881C62.6043 23.5816 62.5445 23.9749 62.4091 24.345C62.2737 24.715 62.0655 25.0543 61.7966 25.3427C61.5277 25.6312 61.2037 25.863 60.8437 26.0244C60.4836 26.1859 60.0948 26.2738 59.7002 26.283H59.7122ZM46.3824 19.6615V21.8206H51.5749C51.4935 22.8376 51.0699 23.7973 50.3729 24.5436C49.8534 25.0717 49.2289 25.4854 48.5396 25.7581C47.8502 26.0308 47.1113 26.1565 46.3704 26.127C44.8402 26.127 43.3727 25.5204 42.2908 24.4406C41.2088 23.3608 40.6009 21.8963 40.6009 20.3692C40.6009 18.8421 41.2088 17.3776 42.2908 16.2978C43.3727 15.218 44.8402 14.6114 46.3704 14.6114C47.8341 14.5876 49.2476 15.144 50.3008 16.1588L51.8273 14.6354C51.1163 13.9169 50.268 13.3481 49.3328 12.9628C48.3975 12.5775 47.3942 12.3835 46.3824 12.3922C45.3138 12.3507 44.2479 12.5249 43.2484 12.9044C42.2489 13.2839 41.3365 13.8608 40.5658 14.6006C39.7951 15.3404 39.1819 16.2279 38.7631 17.2098C38.3443 18.1918 38.1284 19.248 38.1284 20.3152C38.1284 21.3824 38.3443 22.4387 38.7631 23.4206C39.1819 24.4026 39.7951 25.29 40.5658 26.0298C41.3365 26.7697 42.2489 27.3466 43.2484 27.726C44.2479 28.1055 45.3138 28.2797 46.3824 28.2382C47.4112 28.2846 48.4381 28.1106 49.3939 27.7278C50.3496 27.345 51.2122 26.7624 51.9235 26.0191C53.1827 24.6383 53.8551 22.8232 53.7985 20.957C53.8024 20.5023 53.7622 20.0484 53.6783 19.6015L46.3824 19.6615ZM100.844 21.3408C100.53 20.4205 99.9439 19.6168 99.1626 19.0363C98.3813 18.4558 97.4418 18.1258 96.4684 18.0901C95.8109 18.0888 95.1602 18.2221 94.5563 18.4818C93.9525 18.7414 93.4085 19.1219 92.9579 19.5997C92.5073 20.0775 92.1597 20.6425 91.9365 21.2597C91.7133 21.8769 91.6194 22.5333 91.6605 23.1881C91.6459 23.8586 91.7669 24.5251 92.0161 25.1478C92.2654 25.7706 92.6379 26.3368 93.1114 26.8126C93.5848 27.2885 94.1495 27.6642 94.7717 27.9174C95.394 28.1706 96.0609 28.296 96.7328 28.2862C97.5736 28.2907 98.4024 28.0871 99.1449 27.6935C99.8875 27.3 100.521 26.7287 100.988 26.031L99.2449 24.8315C98.9848 25.2643 98.6166 25.6222 98.1762 25.8704C97.7359 26.1185 97.2385 26.2482 96.7328 26.247C96.2122 26.2668 95.6976 26.1298 95.256 25.8538C94.8144 25.5778 94.4662 25.1757 94.2568 24.6996L101.096 21.8806L100.844 21.3408ZM93.8721 23.0442C93.8478 22.6732 93.8978 22.301 94.0194 21.9495C94.141 21.5981 94.3316 21.2743 94.5801 20.9973C94.8286 20.7202 95.1299 20.4955 95.4666 20.3361C95.8032 20.1768 96.1683 20.0861 96.5405 20.0693C96.9282 20.0438 97.3149 20.1325 97.6525 20.3245C97.9901 20.5164 98.2638 20.8031 98.4396 21.1489L93.8721 23.0442ZM88.319 27.9863H90.5667V12.992H88.319V27.9863ZM84.641 19.2296H84.5569C84.2181 18.8517 83.8032 18.5494 83.3392 18.3427C82.8752 18.1359 82.3726 18.0294 81.8645 18.0301C80.551 18.0937 79.3123 18.6592 78.4052 19.6094C77.4981 20.5596 76.9921 21.8217 76.9921 23.1342C76.9921 24.4466 77.4981 25.7087 78.4052 26.6589C79.3123 27.6091 80.551 28.1746 81.8645 28.2382C82.3738 28.2468 82.8789 28.1438 83.344 27.9365C83.8092 27.7293 84.2232 27.4228 84.5569 27.0387H84.629V27.7704C84.629 29.7256 83.5833 30.7693 81.9005 30.7693C81.3401 30.7562 80.7962 30.5769 80.3381 30.2544C79.8801 29.9318 79.5286 29.4805 79.3283 28.9579L77.3691 29.7736C77.7379 30.6689 78.3663 31.4338 79.1737 31.9703C79.9811 32.5067 80.9306 32.7903 81.9005 32.7845C84.5328 32.7845 86.7084 31.2371 86.7084 27.4705V18.39H84.641V19.2296ZM82.0688 26.283C81.2935 26.2148 80.5719 25.8592 80.0462 25.2863C79.5206 24.7135 79.229 23.9649 79.229 23.1881C79.229 22.4114 79.5206 21.6628 80.0462 21.0899C80.5719 20.5171 81.2935 20.1615 82.0688 20.0933C82.4532 20.113 82.8298 20.2093 83.1764 20.3764C83.5229 20.5436 83.8325 20.7783 84.0867 21.0667C84.341 21.3551 84.5349 21.6914 84.6569 22.0557C84.7789 22.4201 84.8267 22.8051 84.7973 23.1881C84.8301 23.5728 84.7843 23.9601 84.6629 24.3267C84.5414 24.6932 84.3467 25.0314 84.0905 25.3207C83.8343 25.61 83.522 25.8444 83.1725 26.0098C82.8229 26.1752 82.4434 26.2681 82.0568 26.283H82.0688ZM111.373 12.992H106V27.9863H108.248V22.3005H111.385C112.025 22.3464 112.669 22.2601 113.274 22.047C113.88 21.8339 114.435 21.4986 114.905 21.0619C115.376 20.6252 115.75 20.0966 116.007 19.5089C116.263 18.9213 116.396 18.2872 116.396 17.6462C116.396 17.0053 116.263 16.3712 116.007 15.7835C115.75 15.1959 115.376 14.6672 114.905 14.2305C114.435 13.7939 113.88 13.4585 113.274 13.2454C112.669 13.0323 112.025 12.9461 111.385 12.992H111.373ZM111.373 20.1893H108.236V15.0792H111.421C112.105 15.0792 112.76 15.3503 113.244 15.8328C113.727 16.3154 113.999 16.9698 113.999 17.6522C113.999 18.3346 113.727 18.9891 113.244 19.4716C112.76 19.9542 112.105 20.2253 111.421 20.2253L111.373 20.1893ZM125.231 18.0301C124.413 17.9813 123.598 18.1721 122.887 18.5791C122.176 18.9862 121.6 19.5917 121.229 20.3212L123.224 21.1489C123.421 20.7871 123.719 20.4901 124.082 20.2942C124.444 20.0982 124.856 20.0118 125.268 20.0453C125.553 20.0121 125.842 20.0358 126.118 20.1153C126.394 20.1947 126.651 20.3282 126.875 20.508C127.099 20.6878 127.285 20.9102 127.421 21.1624C127.558 21.4145 127.643 21.6913 127.671 21.9766V22.1325C126.95 21.7511 126.144 21.5533 125.328 21.5567C123.176 21.5567 121.001 22.7563 121.001 24.9275C121.022 25.3904 121.136 25.8444 121.336 26.2626C121.536 26.6808 121.818 27.0548 122.165 27.3623C122.513 27.6698 122.918 27.9047 123.358 28.0531C123.798 28.2015 124.264 28.2604 124.727 28.2262C125.293 28.2668 125.859 28.1545 126.367 27.9013C126.874 27.648 127.304 27.263 127.611 26.7868H127.683V27.9863H129.847V22.2165C129.847 19.5895 127.852 18.0661 125.292 18.0661L125.231 18.0301ZM124.955 26.247C124.222 26.247 123.2 25.8751 123.2 24.9755C123.2 23.7759 124.474 23.3801 125.604 23.3801C126.318 23.3625 127.024 23.5365 127.647 23.8839C127.572 24.5333 127.264 25.1337 126.781 25.5746C126.297 26.0155 125.67 26.267 125.015 26.283L124.955 26.247ZM137.732 18.39L135.16 24.8915H135.088L132.419 18.39H130.015L134.018 27.4825L131.734 32.5326H134.078L140.232 18.39H137.732ZM117.527 27.9863H119.775V12.992H117.527V27.9863Z" fill="#0F0F54"/>
<path d="M45.9226 4.35784C45.943 4.79782 45.8736 5.23735 45.7187 5.64976C45.5637 6.06217 45.3264 6.43885 45.0211 6.75693C44.6802 7.11031 44.2686 7.38802 43.8129 7.57197C43.3573 7.75592 42.868 7.84198 42.3768 7.82452C41.6315 7.8187 40.9046 7.59352 40.287 7.17719C39.6695 6.76086 39.1887 6.1719 38.9051 5.48411C38.6215 4.79632 38.5476 4.04029 38.6926 3.31075C38.8376 2.58121 39.1952 1.91061 39.7204 1.38297C40.0656 1.03125 40.4795 0.753957 40.9364 0.568261C41.3933 0.382565 41.8835 0.292413 42.3768 0.303383C42.8849 0.301693 43.388 0.403747 43.8552 0.603269C44.2901 0.778347 44.6773 1.05377 44.985 1.40696L44.348 2.04272C44.1081 1.75794 43.8051 1.53275 43.463 1.38494C43.1209 1.23712 42.749 1.17075 42.3768 1.19105C42.0013 1.18921 41.6294 1.26305 41.2832 1.40815C40.9371 1.55325 40.6238 1.76661 40.3623 2.03545C40.1008 2.30429 39.8964 2.62306 39.7613 2.97266C39.6262 3.32226 39.5632 3.69548 39.5762 4.06995C39.5683 4.6291 39.7265 5.17805 40.0309 5.64755C40.3353 6.11706 40.7722 6.48608 41.2865 6.70806C41.8008 6.93004 42.3694 6.99504 42.9207 6.89487C43.472 6.79469 43.9812 6.53382 44.3841 6.14516C44.7539 5.74516 44.9672 5.22571 44.985 4.68172H42.3768V3.81805H45.8745C45.9066 3.9962 45.9226 4.17684 45.9226 4.35784ZM51.4276 1.35898H48.1823V3.63811H51.1391V4.50179H48.1823V6.78092H51.4276V7.66858H47.2207V0.471318H51.4276V1.35898ZM55.37 7.66858H54.4445V1.35898H52.4252V0.471318H57.4374V1.35898H55.37V7.66858ZM60.9712 7.66858V0.471318H61.8967V7.66858H60.9712ZM66.0075 7.66858H65.0819V1.35898H63.0626V0.471318H68.0147V1.35898H66.0075V7.66858ZM77.4021 6.73294C76.6994 7.43029 75.7488 7.82173 74.7578 7.82173C73.7668 7.82173 72.8161 7.43029 72.1134 6.73294C71.4305 6.01144 71.0499 5.0565 71.0499 4.06395C71.0499 3.07141 71.4305 2.11647 72.1134 1.39497C72.4598 1.04679 72.8718 0.770455 73.3256 0.581881C73.7794 0.393307 74.2662 0.296224 74.7578 0.296224C75.2494 0.296224 75.7361 0.393307 76.19 0.581881C76.6438 0.770455 77.0558 1.04679 77.4021 1.39497C78.0878 2.11509 78.4701 3.07055 78.4701 4.06395C78.4701 5.05736 78.0878 6.01282 77.4021 6.73294ZM72.7986 6.13317C73.3189 6.65032 74.0234 6.94067 74.7578 6.94067C75.4922 6.94067 76.1966 6.65032 76.717 6.13317C77.2305 5.5682 77.515 4.83273 77.515 4.06995C77.515 3.30717 77.2305 2.5717 76.717 2.00674C76.1966 1.48959 75.4922 1.19923 74.7578 1.19923C74.0234 1.19923 73.3189 1.48959 72.7986 2.00674C72.285 2.5717 72.0006 3.30717 72.0006 4.06995C72.0006 4.83273 72.285 5.5682 72.7986 6.13317ZM79.77 7.66858V0.471318H80.8998L84.4096 6.07319V0.471318H85.3351V7.66858H84.3735L80.7075 1.80281V7.66858H79.77Z" fill="#0F0F54"/>
<path fill-rule="evenodd" clip-rule="evenodd" d="M74.7578 0.416178C74.282 0.416178 73.811 0.51013 73.3718 0.692621C72.9331 0.874921 72.5348 1.14198 72.1998 1.47842C71.5385 2.17753 71.1701 3.10253 71.1701 4.06395C71.1701 5.02525 71.5384 5.95014 72.1995 6.64921C72.8796 7.32338 73.7992 7.70178 74.7578 7.70178C75.7164 7.70178 76.6361 7.32332 77.3162 6.64907C77.9799 5.95138 78.3499 5.02604 78.3499 4.06395C78.3499 3.10175 77.9798 2.17629 77.3159 1.47858C76.9809 1.14206 76.5826 0.874949 76.1438 0.692621C75.7046 0.51013 75.2335 0.416178 74.7578 0.416178ZM73.2794 0.471142C73.7479 0.276485 74.2503 0.17627 74.7578 0.17627C75.2652 0.17627 75.7677 0.276485 76.2362 0.471142C76.7046 0.665798 77.1299 0.95105 77.4874 1.31046L77.4893 1.31232C78.1962 2.05473 78.5903 3.03979 78.5903 4.06395C78.5903 5.08812 78.1962 6.07315 77.4892 6.81557L77.4869 6.81803C76.7617 7.53773 75.7805 7.94168 74.7578 7.94168C73.7351 7.94168 72.7539 7.5377 72.0287 6.818L72.026 6.81535C71.322 6.07159 70.9298 5.08714 70.9298 4.06395C70.9298 3.04077 71.322 2.05636 72.0261 1.31259L72.0281 1.31043C72.3856 0.951024 72.8109 0.665799 73.2794 0.471142ZM42.3741 0.423308C41.8973 0.412703 41.4234 0.499851 40.9817 0.679357C40.5401 0.858863 40.14 1.12691 39.8063 1.46691L39.8057 1.46752C39.2971 1.9784 38.9509 2.62771 38.8105 3.33409C38.6701 4.04047 38.7416 4.7725 39.0163 5.43846C39.2909 6.10441 39.7563 6.67468 40.3543 7.07779C40.9523 7.4809 41.6561 7.69894 42.3777 7.70457L42.381 7.7046C42.8554 7.72145 43.3279 7.6384 43.7679 7.46077C44.2078 7.28316 44.6053 7.01504 44.9344 6.67386C45.2284 6.36753 45.4569 6.00479 45.6061 5.60764C45.7554 5.21045 45.8222 4.78714 45.8025 4.3634L45.9226 4.35784L45.8024 4.35779C45.8024 4.21728 45.7923 4.07699 45.7722 3.938H42.497V4.56176H45.1092L45.1052 4.68564C45.0864 5.25841 44.8618 5.80534 44.4724 6.22651L44.4677 6.23155C44.0478 6.63667 43.5169 6.90846 42.9422 7.01288C42.3676 7.1173 41.7749 7.04955 41.2388 6.81816C40.7027 6.58677 40.2473 6.20211 39.93 5.71272C39.6133 5.22413 39.4483 4.65301 39.456 4.07118C39.4429 3.68155 39.5086 3.29326 39.6491 2.9295C39.79 2.56484 40.0033 2.23232 40.2761 1.9519C40.5489 1.67147 40.8756 1.44891 41.2367 1.29755C41.5966 1.14666 41.9834 1.06964 42.3738 1.07108C42.7634 1.05038 43.1526 1.12012 43.5107 1.27485C43.8299 1.41274 44.1166 1.61477 44.3533 1.86782L44.8192 1.40281C44.5371 1.10355 44.1929 0.868555 43.8102 0.714515L43.8079 0.713573C43.3558 0.520487 42.8689 0.421702 42.3772 0.423337L42.3741 0.423308ZM46.0428 4.35509C46.0635 4.81037 45.9916 5.26513 45.8312 5.69188C45.6705 6.11951 45.4244 6.51008 45.1079 6.8399C44.7553 7.20542 44.3293 7.4929 43.858 7.68317C43.3872 7.87324 42.8817 7.96226 42.3742 7.94446C41.6058 7.93813 40.8564 7.70583 40.2197 7.27659C39.5826 6.84704 39.0866 6.23939 38.794 5.52976C38.5013 4.82014 38.425 4.0401 38.5747 3.2874C38.7243 2.53484 39.0931 1.84307 39.6348 1.29873C39.9915 0.935422 40.4191 0.648997 40.8911 0.457166C41.3627 0.265473 41.8688 0.172311 42.3779 0.183424C42.9015 0.181892 43.4199 0.287064 43.9013 0.492496C44.3534 0.674685 44.7558 0.961077 45.0757 1.32826L45.1493 1.41268L44.3403 2.22002L44.256 2.11991C44.0281 1.84937 43.7403 1.63544 43.4152 1.49502C43.0902 1.3546 42.737 1.29154 42.3833 1.31082L42.3762 1.31121C42.0169 1.30945 41.661 1.3799 41.3298 1.51874C40.9985 1.65759 40.6988 1.86176 40.4486 2.11901C40.1983 2.37626 40.0027 2.68129 39.8734 3.01582C39.7442 3.35035 39.6839 3.70749 39.6963 4.06581L39.6965 4.07164C39.689 4.60709 39.8404 5.13278 40.1318 5.58239C40.4233 6.032 40.8417 6.38538 41.3342 6.59796C41.8267 6.81054 42.3713 6.87279 42.8992 6.77685C43.426 6.68112 43.9126 6.43217 44.298 6.0613C44.6188 5.71332 44.8147 5.27032 44.8573 4.80167H42.2566V3.69809H45.975L45.9928 3.79684C46.026 3.98109 46.0427 4.1679 46.0428 4.35509ZM47.1005 0.351364H51.5478V1.47894H48.3025V3.51816H51.2593V4.62174H48.3025V6.66097H51.5478V7.78854H47.1005V0.351364ZM47.3409 0.591273V7.54863H51.3074V6.90088H48.0621V4.38183H51.0189V3.75807H48.0621V1.23903H51.3074V0.591273H47.3409ZM52.305 0.351364H57.5576V1.47894H55.4902V7.78854H54.3243V1.47894H52.305V0.351364ZM52.5454 0.591273V1.23903H54.5647V7.54863H55.2498V1.23903H57.3172V0.591273H52.5454ZM60.851 0.351364H62.0169V7.78854H60.851V0.351364ZM61.0914 0.591273V7.54863H61.7765V0.591273H61.0914ZM62.9424 0.351364H68.1349V1.47894H66.1276V7.78854H64.9617V1.47894H62.9424V0.351364ZM63.1828 0.591273V1.23903H65.2021V7.54863H65.8873V1.23903H67.8945V0.591273H63.1828ZM79.6498 0.351364H80.9664L84.2894 5.65509V0.351364H85.4553V7.78854H84.3068L80.8277 2.2218V7.78854H79.6498V0.351364ZM79.8902 0.591273V7.54863H80.5873V1.38383L84.4402 7.54863H85.2149V0.591273H84.5298V6.49129L80.8332 0.591273H79.8902ZM72.7138 1.92174C73.2566 1.3822 73.9916 1.07928 74.7578 1.07928C75.5239 1.07928 76.2589 1.3822 76.8018 1.92174L76.8061 1.92604C77.3397 2.51307 77.6352 3.27738 77.6352 4.06995C77.6352 4.86252 77.3396 5.62673 76.806 6.21376L76.8019 6.21827C76.259 6.75781 75.5239 7.06062 74.7578 7.06062C73.9916 7.06062 73.2566 6.7577 72.7138 6.21816L72.7986 6.13317L72.7095 6.21376C72.176 5.62673 71.8804 4.86252 71.8804 4.06995C71.8804 3.27738 72.176 2.51317 72.7095 1.92614L72.7138 1.92174ZM72.8856 6.05033C73.3832 6.54374 74.0562 6.82071 74.7578 6.82071C75.4593 6.82071 76.1324 6.54374 76.63 6.05033C77.1222 5.50773 77.3948 4.80192 77.3948 4.06995C77.3948 3.33798 77.1222 2.63217 76.63 2.08958C76.1324 1.59616 75.4593 1.31919 74.7578 1.31919C74.0562 1.31919 73.3832 1.59616 72.8856 2.08958C72.3934 2.63217 72.1208 3.33798 72.1208 4.06995C72.1208 4.80192 72.3934 5.50773 72.8856 6.05033Z" fill="#0F0F54"/>
<path d="M1.61502 31.2212L16.3398 15.9795L1.62736 0.765137C1.23439 1.00201 0.991211 1.55046 0.991211 2.26836V29.7326C0.996481 30.4505 1.23087 30.9589 1.61502 31.2212V31.2212Z" fill="#0F0F54"/>
<path d="M16.8671 15.5587L21.2532 11.018L3.39171 0.87999C3.09095 0.699098 2.74931 0.603551 2.40137 0.603027L16.8654 15.5569L16.8671 15.5587Z" fill="#0F0F54"/>
<path d="M16.8667 16.4014L2.35693 31.4208C2.72111 31.4271 3.07983 31.3287 3.3931 31.1366L21.2898 20.9712L16.8667 16.4014Z" fill="#0F0F54"/>
<path d="M27.7241 14.6973L21.7803 11.3174L17.2744 15.9819L21.8138 20.6756L27.7224 17.3047C28.9788 16.5887 28.9788 15.4098 27.7241 14.6973Z" fill="#0F0F54"/>
</svg>
